<svg width="90" height="89" viewBox="0 0 90 89" fill="none" xmlns="http://www.w3.org/2000/svg">
<g clip-path="url(#clip0_19_1391)">
<path d="M39.1787 43.4444H32.5144V39.1668H31.7793L31.172 42.5873H20.4803V35.4318H18.7943V42.5873H9.25331V36.3832C10.7636 35.2509 12.6734 34.2916 14.9907 33.4974V32.7426L7.98278 33.9063V43.4523H0V45.1114H7.98278V54.6574L14.9907 55.8133V55.0584C12.6734 54.2642 10.7636 53.3049 9.25331 52.1726V45.8741H18.7943V53.1162H20.4803V45.8741H31.172L31.7793 49.3261H32.5144V45.1114H39.1787V43.4523V43.4444Z" fill="#D4AF37"/>
<path d="M50.8213 45.1035H57.4856V49.3811H58.2207L58.828 45.9606H69.5197V53.1161H71.2057V45.9606H80.7467V52.1647C79.2365 53.297 77.3267 54.2563 75.0093 55.0505V55.8053L82.0172 54.6416V45.0956H90V43.4365H82.0172V33.8905L75.0093 32.7346V33.4895C77.3267 34.2837 79.2365 35.243 80.7467 36.3753V42.6737H71.2057V35.4317H69.5197V42.6737H58.828L58.2207 39.2218H57.4856V43.4365H50.8213V45.0956V45.1035Z" fill="#D4AF37"/>
<path d="M44.1645 50.0259V56.5838H39.8175V57.3072L43.2935 57.9048V68.4258H36.0219V70.085H43.2935V79.4737H36.9888C35.8381 77.9875 34.8632 76.1082 34.0562 73.8279H33.2891L34.4717 80.7239H44.1725V88.5793H45.8585V80.7239H55.5593L56.734 73.8279H55.9669C55.1598 76.1082 54.1849 77.9875 53.0343 79.4737H46.6337V70.085H53.9932V68.4258H46.6337V57.9048L50.1416 57.3072V56.5838H45.8585V50.0259H44.1725H44.1645Z" fill="#D4AF37"/>
<path d="M45.8585 38.5534V31.9955H50.2055V31.2721L46.7295 30.6745V20.1535H54.0011V18.4943H46.7295V9.10562H53.0343C54.1849 10.5918 55.1598 12.4711 55.9669 14.7514H56.734L55.5514 7.85537H45.8506V0H44.1645V7.85537H34.4637L33.2891 14.7514H34.0562C34.8632 12.4711 35.8381 10.5918 36.9888 9.10562H43.3894V18.4943H36.0299V20.1535H43.3894V30.6745L39.8815 31.2721V31.9955H44.1645V38.5534H45.8506H45.8585Z" fill="#D4AF37"/>
</g>
<defs>
<clipPath id="clip0_19_1391">
<rect width="90" height="88.5714" fill="white"/>
</clipPath>
</defs>
</svg>
